# xmcd
#
# Track frame offsets:
#	150
#	12875
#	23735
#	33762
#	46347
#	57147
#	78252
#	89026
#	101554
#	112199
#	123276
#	136538
#	147186
#	161933
#	171923
#	185742
#	197937
#	209297
#	220172
#	239912
#	252104
#
# Disc length: 3602
#
# Revision: 1
# Processed by: cddbd v1.5.1PL0 Copyright (c) Steve Scherf et al.
# Submitted via: EasyCDDAExtractor 4.5.0.2
# Normalized: r0:TDELIM( - )
#
DISCID=2d0e1015
DTITLE=Various Artist - Good Ol' Country Disc 2
DYEAR=2001
DGENRE=Country
TTITLE0=Patsy Cline - I Fall to Pieces
TTITLE1=Faron Young - Hello Walls
TTITLE2=George Hamilton IV - Abilene
TTITLE3=Bobby Bare - Detroit City
TTITLE4=Dave Dudley - Six Days on the Road
TTITLE5=Marty Robbins - El Paso
TTITLE6=The Everly Brothers - Cathy's Clown
TTITLE7=Johnny Cash w/ June Carter - Jackson
TTITLE8=The Statler Brothers - Flowers on the Wall
TTITLE9=Roger Miller - King of the Road
TTITLE10=Kenny Rodgers - Ruby, Don't Taker Your Love to Town
TTITLE11=Johnny Cash - Daddy Sang Bass
TTITLE12=Jeannie C. Riley - Harper Valley P.T.A.
TTITLE13=Merle Haggard - Mama Tried
TTITLE14=Glen Campbell - Wichita Lineman
TTITLE15=Tammy Wynette - Stand by Your Man
TTITLE16=Buck Owens - Cryin' Time
TTITLE17=Porter Wagoner - Green, Green Grass of Home
TTITLE18=Elvis Presley - Suspicious Minds
TTITLE19=Glen Campbell - Galveston
TTITLE20=Bobby Goldsboro - Honey
EXTD=
EXTT0=
EXTT1=
EXTT2=
EXTT3=
EXTT4=
EXTT5=
EXTT6=
EXTT7=
EXTT8=
EXTT9=
EXTT10=
EXTT11=
EXTT12=
EXTT13=
EXTT14=
EXTT15=
EXTT16=
EXTT17=
EXTT18=
EXTT19=
EXTT20=
PLAYORDER=
